<svg width="400" height="227" viewBox="0 0 400 227" fill="none" xmlns="http://www.w3.org/2000/svg">
<path d="M42.2112 224.472C37.3849 224.472 32.821 223.895 28.5193 222.741C24.3226 221.587 20.9127 220.223 18.2898 218.649C15.6668 217.18 14.3553 215.974 14.3553 215.03C14.3553 214.085 14.5127 212.879 14.8275 211.41C15.2472 210.046 15.8242 208.839 16.5586 207.79C17.2931 206.741 18.1324 206.216 19.0766 206.216C19.3914 206.216 20.4931 206.898 22.3816 208.262C24.375 209.626 26.998 210.99 30.2504 212.354C33.6079 213.718 37.4898 214.4 41.8964 214.4C46.7226 214.4 50.762 213.613 54.0144 212.039C57.2669 210.466 59.9423 207.685 62.0407 203.698C64.139 199.711 65.8177 194.151 67.0767 187.016C68.3357 179.882 69.4374 170.754 70.3816 159.633C66.8144 164.459 63.0898 167.869 59.2079 169.862C55.3259 171.751 50.6046 172.695 45.0439 172.695C40.8472 172.695 36.8603 171.698 33.0833 169.705C29.4111 167.711 26.3685 164.616 23.9553 160.42C21.6472 156.223 20.4931 150.82 20.4931 144.21C20.4931 140.013 21.0176 135.502 22.0668 130.675C23.2209 125.744 25.1094 120.918 27.7324 116.197C30.3553 111.475 33.8702 107.226 38.2767 103.449C42.7882 99.5672 48.3489 96.4722 54.9587 94.164C61.5685 91.8558 69.4374 90.7017 78.5653 90.7017C79.7194 90.7017 81.1357 90.859 82.8144 91.1738C84.598 91.3836 86.1718 91.9607 87.5357 92.9049C88.8997 93.8492 89.5816 95.423 89.5816 97.6262L78.5653 184.813C77.621 192.262 75.8898 198.977 73.3718 204.957C70.9587 211.043 67.2866 215.816 62.3554 219.279C57.4243 222.741 50.7095 224.472 42.2112 224.472ZM48.821 162.308C53.4374 162.308 57.2669 161.102 60.3095 158.689C63.3521 156.275 65.8177 153.128 67.7062 149.246C69.5948 145.259 71.0636 140.957 72.1128 136.341C73.2669 131.725 74.1587 127.161 74.7882 122.649L77.4636 100.931C77.0439 100.721 76.362 100.616 75.4177 100.616C74.4734 100.511 73.8964 100.459 73.6866 100.459C65.9226 100.459 58.998 102.4 52.9128 106.282C46.8275 110.164 42.0538 115.305 38.5915 121.705C35.1292 128.105 33.398 135.134 33.398 142.793C33.398 147.934 34.6046 152.498 37.0177 156.485C39.5357 160.367 43.4702 162.308 48.821 162.308Z" fill="#623CA7"/>
<path d="M226.493 172.695C215.477 172.695 207.136 169.652 201.471 163.567C195.805 157.482 192.972 148.931 192.972 137.915C192.972 129.836 194.336 122.859 197.064 116.984C199.897 111.003 203.516 106.072 207.923 102.19C212.33 98.3081 216.998 95.4229 221.93 93.5344C226.861 91.6458 231.53 90.7016 235.936 90.7016C241.497 90.7016 246.166 92.0655 249.943 94.7934C253.72 97.5212 255.608 101.508 255.608 106.754C255.608 112.944 253.352 118.4 248.841 123.121C244.33 127.843 238.297 131.515 230.743 134.138C223.293 136.761 214.952 138.072 205.72 138.072C205.72 145.731 207.503 151.816 211.071 156.328C214.743 160.734 220.093 162.938 227.123 162.938C230.795 162.938 233.995 162.256 236.723 160.892C239.556 159.423 241.812 158.006 243.49 156.643C245.274 155.279 246.271 154.597 246.48 154.597C247.739 154.597 248.736 155.436 249.471 157.115C250.31 158.688 250.73 160.21 250.73 161.679C250.73 162.728 249.471 164.144 246.953 165.928C244.434 167.711 241.287 169.285 237.51 170.649C233.838 172.013 230.166 172.695 226.493 172.695ZM206.349 128.787C210.966 128.787 215.53 128.315 220.041 127.37C224.553 126.321 228.592 124.905 232.159 123.121C235.831 121.338 238.716 119.187 240.815 116.669C243.018 114.151 244.12 111.37 244.12 108.328C244.12 105.6 243.28 103.554 241.602 102.19C239.923 100.826 237.825 100.144 235.307 100.144C232.054 100.144 228.382 101.246 224.29 103.449C220.198 105.547 216.421 108.695 212.959 112.892C209.602 117.088 207.398 122.387 206.349 128.787ZM283.297 172.695C277.841 172.695 273.12 171.121 269.133 167.974C265.146 164.721 263.152 159.895 263.152 153.495C263.152 148.354 264.674 143.475 267.716 138.859C270.864 134.138 276.162 130.151 283.612 126.898C291.166 123.646 301.552 121.6 314.772 120.761C315.087 118.872 315.297 117.088 315.402 115.41C315.507 113.626 315.559 112.157 315.559 111.003C315.559 107.226 314.143 104.656 311.31 103.292C308.477 101.928 305.067 101.246 301.08 101.246C297.093 101.246 293.579 101.77 290.536 102.82C287.493 103.764 284.975 104.761 282.982 105.81C280.989 106.754 279.52 107.226 278.575 107.226C277.107 107.226 275.952 106.334 275.113 104.551C274.379 102.767 274.012 101.193 274.012 99.8294C274.012 98.8852 274.903 97.8885 276.687 96.8393C278.575 95.7901 280.936 94.7934 283.769 93.8491C286.707 92.9049 289.749 92.1704 292.897 91.6458C296.044 91.0163 298.93 90.7016 301.552 90.7016C305.959 90.7016 310.156 91.2786 314.143 92.4327C318.13 93.4819 321.382 95.318 323.9 97.9409C326.418 100.564 327.677 104.184 327.677 108.8C327.677 112.052 327.205 116.354 326.261 121.705C325.316 126.951 324.32 132.511 323.271 138.387C322.326 144.262 321.854 149.823 321.854 155.069C321.854 158.636 322.116 161.364 322.641 163.252C323.271 165.141 323.585 166.82 323.585 168.288C323.585 169.233 323.008 170.02 321.854 170.649C320.805 171.279 319.546 171.751 318.077 172.066C316.713 172.485 315.507 172.695 314.457 172.695C313.513 172.695 312.779 171.908 312.254 170.334C311.73 168.761 311.362 166.872 311.152 164.669C311.048 162.466 310.995 160.42 310.995 158.531V154.439C307.743 160.734 303.546 165.351 298.405 168.288C293.264 171.226 288.228 172.695 283.297 172.695ZM287.389 162.308C290.956 162.308 294.156 161.364 296.989 159.475C299.821 157.482 302.287 154.911 304.385 151.764C306.589 148.511 308.372 144.997 309.736 141.22C311.1 137.443 312.097 133.77 312.726 130.203C303.284 130.938 295.834 132.302 290.379 134.295C285.028 136.184 281.198 138.544 278.89 141.377C276.687 144.21 275.585 147.462 275.585 151.134C275.585 154.177 276.634 156.8 278.733 159.003C280.831 161.206 283.716 162.308 287.389 162.308ZM360.249 172.695C358.99 172.695 357.889 171.698 356.944 169.705C356.105 167.711 355.423 165.141 354.898 161.993C354.479 158.741 354.269 155.279 354.269 151.606C354.269 149.403 354.374 146.938 354.584 144.21C354.898 141.482 355.108 139.384 355.213 137.915L359.305 103.449H350.334C348.026 103.449 346.872 101.928 346.872 98.8852C346.872 97.5212 347.292 96.2098 348.131 94.9507C348.971 93.5868 350.072 92.9049 351.436 92.9049H360.721L363.554 68.6688C363.764 66.8852 364.813 65.5737 366.702 64.7344C368.59 63.895 370.426 63.4753 372.21 63.4753C373.679 63.4753 374.57 63.5803 374.885 63.7901C375.305 63.9999 375.515 64.5245 375.515 65.3639L372.21 92.9049H386.846C389.259 92.9049 390.466 94.4786 390.466 97.6262C390.466 98.8852 389.993 100.197 389.049 101.561C388.21 102.82 387.108 103.449 385.744 103.449H370.793L366.702 137.915C366.387 140.433 366.177 142.688 366.072 144.682C365.967 146.675 365.915 148.511 365.915 150.19C365.915 155.331 366.334 159.213 367.174 161.836C368.118 164.459 368.59 166.61 368.59 168.288C368.59 169.652 367.541 170.702 365.443 171.436C363.449 172.275 361.718 172.695 360.249 172.695Z" fill="#06CF90"/>
<mask id="mask0_3_1077" style="mask-type:alpha" maskUnits="userSpaceOnUse" x="75" y="59" width="132" height="132">
<path d="M206.557 59.0164H75.4099V190.164H206.557V59.0164Z" fill="#D9D9D9"/>
</mask>
<g mask="url(#mask0_3_1077)">
<path d="M140.984 173.771C130.329 173.771 121.289 170.06 113.867 162.637C106.444 155.215 102.733 146.175 102.733 135.52C102.733 126.959 105.26 119.285 110.315 112.501C115.37 105.715 121.995 101.139 130.192 98.771C128.37 98.3156 126.594 97.6553 124.864 96.79C123.133 95.9248 121.585 94.8094 120.219 93.4431C117.214 90.4376 115.278 86.8628 114.413 82.7192C113.548 78.5753 113.343 74.3628 113.798 70.0825C118.079 69.6271 122.291 69.832 126.435 70.6972C130.579 71.5625 134.153 73.4979 137.159 76.5031C139.254 78.5979 140.779 80.9658 141.735 83.6071C142.692 86.2481 143.307 89.0261 143.58 91.9405C144.764 89.1169 146.198 86.453 147.883 83.9487C149.568 81.4441 151.458 79.1445 153.552 77.0497C154.554 76.0477 155.829 75.5471 157.378 75.5471C158.926 75.5471 160.201 76.0477 161.203 77.0497C162.205 78.0513 162.706 79.3264 162.706 80.8749C162.706 82.4231 162.205 83.6982 161.203 84.6999C159.199 86.7035 157.423 88.912 155.875 91.3258C154.327 93.7392 153.188 96.312 152.46 99.0441C160.474 101.594 166.94 106.216 171.858 112.91C176.776 119.604 179.235 127.141 179.235 135.52C179.235 146.175 175.524 155.215 168.102 162.637C160.679 170.06 151.64 173.771 140.984 173.771ZM140.984 162.842C148.543 162.842 154.987 160.178 160.315 154.85C165.643 149.522 168.307 143.079 168.307 135.52C168.307 127.961 165.643 121.517 160.315 116.189C154.987 110.861 148.543 108.197 140.984 108.197C133.425 108.197 126.981 110.861 121.653 116.189C116.326 121.517 113.662 127.961 113.662 135.52C113.662 143.079 116.326 149.522 121.653 154.85C126.981 160.178 133.425 162.842 140.984 162.842Z" fill="#623CA7"/>
</g>
</svg>
