<svg width="150" height="66" viewBox="0 0 150 66" fill="none" xmlns="http://www.w3.org/2000/svg">
<path d="M11.1094 66C9.18463 66 7.36445 65.7698 5.64885 65.3094C3.97512 64.849 2.61521 64.305 1.56912 63.6772C0.523042 63.0913 0 62.61 0 62.2333C0 61.8566 0.062765 61.3754 0.188295 60.7894C0.355668 60.2454 0.585807 59.7641 0.87871 59.3456C1.17161 58.927 1.50636 58.7178 1.88294 58.7178C2.00848 58.7178 2.44783 58.9898 3.20101 59.5339C3.99604 60.078 5.04212 60.622 6.33926 61.1661C7.67828 61.7102 9.22648 61.9822 10.9839 61.9822C12.9087 61.9822 14.5197 61.6683 15.8168 61.0405C17.1139 60.4128 18.1809 59.3037 19.0178 57.7133C19.8547 56.123 20.5242 53.9048 21.0263 51.0589C21.5284 48.213 21.9678 44.5719 22.3444 40.1357C20.9217 42.0608 19.4362 43.421 17.888 44.2162C16.3398 44.9695 14.4569 45.3462 12.2392 45.3462C10.5655 45.3462 8.97542 44.9486 7.46906 44.1534C6.00452 43.3582 4.79106 42.1236 3.82866 40.4496C2.90811 38.7755 2.44783 36.6201 2.44783 33.9835C2.44783 32.3094 2.65705 30.5098 3.07548 28.5846C3.53576 26.6176 4.28894 24.6924 5.33502 22.8091C6.38111 20.9258 7.78288 19.2308 9.5403 17.7241C11.3396 16.1756 13.5573 14.941 16.1934 14.0203C18.8295 13.0995 21.9678 12.6392 25.6081 12.6392C26.0684 12.6392 26.6333 12.7019 27.3028 12.8275C28.0141 12.9112 28.6418 13.1414 29.1857 13.518C29.7297 13.8947 30.0017 14.5225 30.0017 15.4014L25.6081 50.1801C25.2315 53.1515 24.5411 55.83 23.5369 58.2156C22.5745 60.643 21.11 62.5472 19.1433 63.9283C17.1767 65.3094 14.4987 66 11.1094 66ZM13.7456 41.2029C15.5867 41.2029 17.1139 40.7216 18.3274 39.759C19.5409 38.7964 20.5242 37.5409 21.2774 35.9924C22.0305 34.402 22.6163 32.6861 23.0348 30.8446C23.495 29.0031 23.8507 27.1826 24.1018 25.383L25.1688 16.7197C25.0014 16.636 24.7294 16.5941 24.3528 16.5941C23.9762 16.5523 23.7461 16.5314 23.6624 16.5314C20.566 16.5314 17.8044 17.3056 15.3774 18.8541C12.9505 20.4026 11.0467 22.4534 9.66583 25.0063C8.285 27.5593 7.59459 30.3633 7.59459 33.4185C7.59459 35.4692 8.07579 37.2898 9.03818 38.8801C10.0424 40.4286 11.6115 41.2029 13.7456 41.2029Z" fill="white"/>
<path d="M84.6048 45.3461C80.2112 45.3461 76.8847 44.1324 74.6252 41.705C72.3656 39.2776 71.2358 35.8667 71.2358 31.4723C71.2358 28.2497 71.7798 25.4666 72.8677 23.1229C73.9975 20.7373 75.4411 18.7703 77.1985 17.2218C78.9559 15.6733 80.818 14.5224 82.7846 13.7691C84.7512 13.0157 86.6133 12.6391 88.3707 12.6391C90.5884 12.6391 92.4504 13.1831 93.9568 14.2713C95.4631 15.3594 96.2163 16.9498 96.2163 19.0424C96.2163 21.5116 95.3167 23.6879 93.5174 25.5712C91.7181 27.4545 89.3122 28.9193 86.2994 29.9656C83.3286 31.0119 80.002 31.5351 76.3198 31.5351C76.3198 34.5902 77.0311 37.0176 78.4538 38.8172C79.9183 40.575 82.0523 41.4539 84.8558 41.4539C86.3204 41.4539 87.5966 41.1819 88.6845 40.6378C89.8143 40.0519 90.7139 39.4869 91.3834 38.9428C92.0947 38.3987 92.4922 38.1267 92.5759 38.1267C93.078 38.1267 93.4756 38.4615 93.7685 39.1311C94.1032 39.7589 94.2706 40.3658 94.2706 40.9517C94.2706 41.3702 93.7685 41.9352 92.7642 42.6467C91.76 43.3581 90.5047 43.9859 88.9983 44.53C87.5338 45.0741 86.0693 45.3461 84.6048 45.3461ZM76.5709 27.8312C78.412 27.8312 80.2322 27.6429 82.0314 27.2662C83.8307 26.8477 85.4416 26.2827 86.8643 25.5712C88.3288 24.8597 89.4795 24.0018 90.3164 22.9973C91.1951 21.9929 91.6345 20.8838 91.6345 19.6701C91.6345 18.582 91.2997 17.7659 90.6302 17.2218C89.9607 16.6777 89.1239 16.4057 88.1196 16.4057C86.8225 16.4057 85.358 16.8451 83.7261 17.724C82.0942 18.5611 80.5878 19.8166 79.207 21.4907C77.868 23.1647 76.9893 25.2782 76.5709 27.8312ZM107.259 45.3461C105.083 45.3461 103.2 44.7183 101.61 43.4628C100.02 42.1654 99.2251 40.2402 99.2251 37.6872C99.2251 35.6365 99.8318 33.6904 101.045 31.8489C102.301 29.9656 104.414 28.3753 107.385 27.0779C110.397 25.7805 114.54 24.9644 119.812 24.6295C119.938 23.8762 120.021 23.1647 120.063 22.4951C120.105 21.7836 120.126 21.1977 120.126 20.7373C120.126 19.2307 119.561 18.2053 118.431 17.6613C117.301 17.1172 115.941 16.8451 114.351 16.8451C112.761 16.8451 111.36 17.0544 110.146 17.4729C108.933 17.8496 107.929 18.2472 107.133 18.6657C106.338 19.0424 105.753 19.2307 105.376 19.2307C104.79 19.2307 104.33 18.8749 103.995 18.1635C103.702 17.452 103.556 16.8242 103.556 16.2801C103.556 15.9035 103.912 15.5059 104.623 15.0874C105.376 14.6689 106.318 14.2713 107.447 13.8946C108.619 13.5179 109.832 13.225 111.088 13.0157C112.343 12.7646 113.494 12.6391 114.54 12.6391C116.297 12.6391 117.971 12.8692 119.561 13.3296C121.151 13.7481 122.448 14.4805 123.452 15.5268C124.457 16.5731 124.959 18.017 124.959 19.8585C124.959 21.1559 124.77 22.8718 124.394 25.0062C124.017 27.0988 123.62 29.3169 123.201 31.6606C122.825 34.0043 122.636 36.2224 122.636 38.315C122.636 39.738 122.741 40.8261 122.95 41.5794C123.201 42.3328 123.327 43.0024 123.327 43.5883C123.327 43.965 123.097 44.2789 122.636 44.53C122.218 44.7811 121.716 44.9694 121.13 45.095C120.586 45.2624 120.105 45.3461 119.686 45.3461C119.31 45.3461 119.017 45.0322 118.808 44.4044C118.599 43.7767 118.452 43.0233 118.368 42.1444C118.327 41.2656 118.306 40.4495 118.306 39.6961V38.0639C117.009 40.575 115.335 42.4165 113.284 43.5883C111.234 44.7602 109.226 45.3461 107.259 45.3461ZM108.891 41.2028C110.314 41.2028 111.59 40.8261 112.72 40.0728C113.849 39.2776 114.833 38.2522 115.67 36.9967C116.548 35.6993 117.26 34.2973 117.804 32.7906C118.347 31.2839 118.745 29.8191 118.996 28.3962C115.23 28.6892 112.259 29.2332 110.083 30.0284C107.949 30.7817 106.422 31.7234 105.502 32.8534C104.623 33.9834 104.184 35.2808 104.184 36.7456C104.184 37.9593 104.602 39.0056 105.439 39.8845C106.276 40.7633 107.426 41.2028 108.891 41.2028ZM137.949 45.3461C137.447 45.3461 137.008 44.9485 136.631 44.1533C136.296 43.3581 136.024 42.3328 135.815 41.0772C135.648 39.7798 135.564 38.3987 135.564 36.9339C135.564 36.055 135.606 35.0715 135.69 33.9834C135.815 32.8952 135.899 32.0582 135.941 31.4723L137.573 17.724H133.995C133.074 17.724 132.614 17.1172 132.614 15.9035C132.614 15.3594 132.781 14.8363 133.116 14.334C133.451 13.79 133.89 13.5179 134.434 13.5179H138.137L139.267 3.85022C139.351 3.13874 139.769 2.6156 140.522 2.28078C141.276 1.94597 142.008 1.77856 142.719 1.77856C143.305 1.77856 143.661 1.82041 143.786 1.90412C143.954 1.98782 144.037 2.19708 144.037 2.53189L142.719 13.5179H148.556C149.519 13.5179 150 14.1457 150 15.4013C150 15.9035 149.812 16.4266 149.435 16.9707C149.1 17.4729 148.661 17.724 148.117 17.724H142.154L140.522 31.4723C140.397 32.4767 140.313 33.3765 140.271 34.1717C140.23 34.9669 140.209 35.6993 140.209 36.3689C140.209 38.4196 140.376 39.9682 140.711 41.0145C141.087 42.0607 141.276 42.9187 141.276 43.5883C141.276 44.1324 140.857 44.5509 140.02 44.8439C139.225 45.1787 138.535 45.3461 137.949 45.3461Z" fill="#06CF90"/>
<mask id="mask0_53_28" style="mask-type:alpha" maskUnits="userSpaceOnUse" x="24" y="0" width="53" height="53">
<path d="M76.654 0H24.3499V52.3145H76.654V0Z" fill="#D9D9D9"/>
</mask>
<g mask="url(#mask0_53_28)">
<path d="M50.5022 45.7754C46.2525 45.7754 42.6475 44.2949 39.6872 41.3342C36.7269 38.3733 35.2468 34.7675 35.2468 30.517C35.2468 27.102 36.2547 24.0412 38.2707 21.3348C40.2866 18.6281 42.929 16.8026 46.198 15.8581C45.4715 15.6764 44.7633 15.413 44.0732 15.0679C43.383 14.7227 42.7656 14.2778 42.2207 13.7328C41.0221 12.5339 40.2502 11.1079 39.9052 9.45504C39.5601 7.80204 39.4784 6.12169 39.66 4.41428C41.3672 4.23262 43.0471 4.31436 44.6998 4.6595C46.3524 5.00465 47.778 5.77668 48.9767 6.97547C49.8121 7.81106 50.4205 8.7556 50.8018 9.80921C51.1832 10.8627 51.4284 11.9708 51.5373 13.1334C52.0095 12.0071 52.5816 10.9444 53.2536 9.94549C53.9256 8.94642 54.6793 8.02908 55.5147 7.19349C55.9143 6.7938 56.4227 6.59409 57.0403 6.59409C57.6577 6.59409 58.1662 6.7938 58.5657 7.19349C58.9653 7.59304 59.1651 8.10167 59.1651 8.71937C59.1651 9.33694 58.9653 9.84557 58.5657 10.2451C57.7666 11.0444 57.0584 11.9253 56.4409 12.8882C55.8234 13.8509 55.3694 14.8772 55.0789 15.967C58.2752 16.9843 60.854 18.828 62.8154 21.4982C64.7768 24.1685 65.7575 27.1748 65.7575 30.517C65.7575 34.7675 64.2775 38.3733 61.3172 41.3342C58.3569 44.2949 54.752 45.7754 50.5022 45.7754ZM50.5022 41.4159C53.5169 41.4159 56.0868 40.3533 58.2116 38.228C60.3365 36.1027 61.3989 33.5324 61.3989 30.517C61.3989 27.5017 60.3365 24.9314 58.2116 22.8061C56.0868 20.6808 53.5169 19.6182 50.5022 19.6182C47.4874 19.6182 44.9176 20.6808 42.7927 22.8061C40.6679 24.9314 39.6055 27.5017 39.6055 30.517C39.6055 33.5324 40.6679 36.1027 42.7927 38.228C44.9176 40.3533 47.4874 41.4159 50.5022 41.4159Z" fill="white"/>
</g>
</svg>
