<svg width="200" height="200" viewBox="0 0 200 200" fill="none" xmlns="http://www.w3.org/2000/svg">
<rect width="200" height="200" rx="15" transform="matrix(1 0 0 -1 0 200)" fill="#623CA7"/>
<path d="M38.1094 133C36.1846 133 34.3645 132.77 32.6488 132.309C30.9751 131.849 29.6152 131.305 28.5691 130.677C27.523 130.091 27 129.61 27 129.233C27 128.857 27.0628 128.375 27.1883 127.789C27.3557 127.245 27.5858 126.764 27.8787 126.346C28.1716 125.927 28.5064 125.718 28.8829 125.718C29.0085 125.718 29.4478 125.99 30.201 126.534C30.996 127.078 32.0421 127.622 33.3393 128.166C34.6783 128.71 36.2265 128.982 37.9839 128.982C39.9087 128.982 41.5197 128.668 42.8168 128.041C44.1139 127.413 45.1809 126.304 46.0178 124.713C46.8547 123.123 47.5242 120.905 48.0263 118.059C48.5284 115.213 48.9678 111.572 49.3444 107.136C47.9217 109.061 46.4362 110.421 44.888 111.216C43.3398 111.97 41.4569 112.346 39.2392 112.346C37.5655 112.346 35.9754 111.949 34.4691 111.153C33.0045 110.358 31.7911 109.124 30.8287 107.45C29.9081 105.775 29.4478 103.62 29.4478 100.983C29.4478 99.3094 29.6571 97.5098 30.0755 95.5846C30.5358 93.6176 31.2889 91.6924 32.335 89.8091C33.3811 87.9258 34.7829 86.2308 36.5403 84.7241C38.3396 83.1756 40.5573 81.941 43.1934 81.0203C45.8295 80.0995 48.9678 79.6392 52.6081 79.6392C53.0684 79.6392 53.6333 79.7019 54.3028 79.8275C55.0141 79.9112 55.6418 80.1414 56.1857 80.518C56.7297 80.8947 57.0017 81.5225 57.0017 82.4014L52.6081 117.18C52.2315 120.152 51.5411 122.83 50.5369 125.216C49.5745 127.643 48.11 129.547 46.1433 130.928C44.1767 132.309 41.4987 133 38.1094 133ZM40.7456 108.203C42.5867 108.203 44.1139 107.722 45.3274 106.759C46.5409 105.796 47.5242 104.541 48.2774 102.992C49.0305 101.402 49.6163 99.6861 50.0348 97.8446C50.495 96.0031 50.8507 94.1826 51.1018 92.383L52.1688 83.7197C52.0014 83.636 51.7294 83.5941 51.3528 83.5941C50.9762 83.5523 50.7461 83.5314 50.6624 83.5314C47.566 83.5314 44.8044 84.3056 42.3774 85.8541C39.9505 87.4026 38.0467 89.4534 36.6658 92.0063C35.285 94.5593 34.5946 97.3633 34.5946 100.418C34.5946 102.469 35.0758 104.29 36.0382 105.88C37.0424 107.429 38.6115 108.203 40.7456 108.203Z" fill="white"/>
<path d="M111.605 112.346C107.211 112.346 103.885 111.132 101.625 108.705C99.3656 106.278 98.2358 102.867 98.2358 98.4723C98.2358 95.2497 98.7798 92.4666 99.8677 90.1229C100.997 87.7373 102.441 85.7703 104.199 84.2218C105.956 82.6733 107.818 81.5224 109.785 80.7691C111.751 80.0157 113.613 79.6391 115.371 79.6391C117.588 79.6391 119.45 80.1831 120.957 81.2713C122.463 82.3594 123.216 83.9498 123.216 86.0424C123.216 88.5116 122.317 90.6879 120.517 92.5712C118.718 94.4545 116.312 95.9193 113.299 96.9656C110.329 98.0119 107.002 98.5351 103.32 98.5351C103.32 101.59 104.031 104.018 105.454 105.817C106.918 107.575 109.052 108.454 111.856 108.454C113.32 108.454 114.597 108.182 115.685 107.638C116.814 107.052 117.714 106.487 118.383 105.943C119.095 105.399 119.492 105.127 119.576 105.127C120.078 105.127 120.476 105.461 120.768 106.131C121.103 106.759 121.271 107.366 121.271 107.952C121.271 108.37 120.768 108.935 119.764 109.647C118.76 110.358 117.505 110.986 115.998 111.53C114.534 112.074 113.069 112.346 111.605 112.346ZM103.571 94.8312C105.412 94.8312 107.232 94.6429 109.031 94.2662C110.831 93.8477 112.442 93.2827 113.864 92.5712C115.329 91.8597 116.48 91.0018 117.316 89.9973C118.195 88.9929 118.634 87.8838 118.634 86.6701C118.634 85.582 118.3 84.7659 117.63 84.2218C116.961 83.6777 116.124 83.4057 115.12 83.4057C113.822 83.4057 112.358 83.8451 110.726 84.724C109.094 85.5611 107.588 86.8166 106.207 88.4907C104.868 90.1647 103.989 92.2782 103.571 94.8312ZM134.259 112.346C132.083 112.346 130.2 111.718 128.61 110.463C127.02 109.165 126.225 107.24 126.225 104.687C126.225 102.637 126.832 100.69 128.045 98.8489C129.301 96.9656 131.414 95.3753 134.385 94.0779C137.397 92.7805 141.54 91.9644 146.812 91.6295C146.938 90.8762 147.021 90.1647 147.063 89.4951C147.105 88.7836 147.126 88.1977 147.126 87.7373C147.126 86.2307 146.561 85.2053 145.431 84.6613C144.301 84.1172 142.941 83.8451 141.351 83.8451C139.761 83.8451 138.36 84.0544 137.146 84.4729C135.933 84.8496 134.929 85.2472 134.133 85.6657C133.338 86.0424 132.753 86.2307 132.376 86.2307C131.79 86.2307 131.33 85.8749 130.995 85.1635C130.702 84.452 130.556 83.8242 130.556 83.2801C130.556 82.9035 130.912 82.5059 131.623 82.0874C132.376 81.6689 133.318 81.2713 134.447 80.8946C135.619 80.5179 136.832 80.225 138.088 80.0157C139.343 79.7646 140.494 79.6391 141.54 79.6391C143.297 79.6391 144.971 79.8692 146.561 80.3296C148.151 80.7481 149.448 81.4805 150.452 82.5268C151.457 83.5731 151.959 85.017 151.959 86.8585C151.959 88.1559 151.77 89.8718 151.394 92.0062C151.017 94.0988 150.62 96.3169 150.201 98.6606C149.825 101.004 149.636 103.222 149.636 105.315C149.636 106.738 149.741 107.826 149.95 108.579C150.201 109.333 150.327 110.002 150.327 110.588C150.327 110.965 150.097 111.279 149.636 111.53C149.218 111.781 148.716 111.969 148.13 112.095C147.586 112.262 147.105 112.346 146.686 112.346C146.31 112.346 146.017 112.032 145.808 111.404C145.599 110.777 145.452 110.023 145.368 109.144C145.327 108.266 145.306 107.449 145.306 106.696V105.064C144.009 107.575 142.335 109.416 140.284 110.588C138.234 111.76 136.226 112.346 134.259 112.346ZM135.891 108.203C137.314 108.203 138.59 107.826 139.72 107.073C140.849 106.278 141.833 105.252 142.67 103.997C143.548 102.699 144.26 101.297 144.804 99.7906C145.347 98.2839 145.745 96.8191 145.996 95.3962C142.23 95.6892 139.259 96.2332 137.083 97.0284C134.949 97.7817 133.422 98.7234 132.502 99.8534C131.623 100.983 131.184 102.281 131.184 103.746C131.184 104.959 131.602 106.006 132.439 106.884C133.276 107.763 134.426 108.203 135.891 108.203ZM164.949 112.346C164.447 112.346 164.008 111.948 163.631 111.153C163.296 110.358 163.024 109.333 162.815 108.077C162.648 106.78 162.564 105.399 162.564 103.934C162.564 103.055 162.606 102.072 162.69 100.983C162.815 99.8952 162.899 99.0582 162.941 98.4723L164.573 84.724H160.995C160.074 84.724 159.614 84.1172 159.614 82.9035C159.614 82.3594 159.781 81.8363 160.116 81.334C160.451 80.79 160.89 80.5179 161.434 80.5179H165.137L166.267 70.8502C166.351 70.1387 166.769 69.6156 167.522 69.2808C168.276 68.946 169.008 68.7786 169.719 68.7786C170.305 68.7786 170.661 68.8204 170.786 68.9041C170.954 68.9878 171.037 69.1971 171.037 69.5319L169.719 80.5179H175.556C176.519 80.5179 177 81.1457 177 82.4013C177 82.9035 176.812 83.4266 176.435 83.9707C176.1 84.4729 175.661 84.724 175.117 84.724H169.154L167.522 98.4723C167.397 99.4767 167.313 100.377 167.271 101.172C167.23 101.967 167.209 102.699 167.209 103.369C167.209 105.42 167.376 106.968 167.711 108.014C168.087 109.061 168.276 109.919 168.276 110.588C168.276 111.132 167.857 111.551 167.02 111.844C166.225 112.179 165.535 112.346 164.949 112.346Z" fill="#06CF90"/>
<mask id="mask0_53_27" style="mask-type:alpha" maskUnits="userSpaceOnUse" x="51" y="67" width="53" height="53">
<path d="M103.654 67H51.3499V119.315H103.654V67Z" fill="#D9D9D9"/>
</mask>
<g mask="url(#mask0_53_27)">
<path d="M77.5022 112.775C73.2525 112.775 69.6475 111.295 66.6872 108.334C63.7269 105.373 62.2468 101.768 62.2468 97.517C62.2468 94.102 63.2547 91.0412 65.2707 88.3348C67.2866 85.6281 69.929 83.8026 73.198 82.8581C72.4715 82.6764 71.7633 82.413 71.0732 82.0679C70.383 81.7227 69.7656 81.2778 69.2207 80.7328C68.0221 79.5339 67.2502 78.1079 66.9052 76.455C66.5601 74.802 66.4784 73.1217 66.66 71.4143C68.3672 71.2326 70.0471 71.3144 71.6998 71.6595C73.3524 72.0046 74.778 72.7767 75.9767 73.9755C76.8121 74.8111 77.4205 75.7556 77.8018 76.8092C78.1832 77.8627 78.4284 78.9708 78.5373 80.1334C79.0095 79.0071 79.5816 77.9444 80.2536 76.9455C80.9256 75.9464 81.6793 75.0291 82.5147 74.1935C82.9143 73.7938 83.4227 73.5941 84.0403 73.5941C84.6577 73.5941 85.1662 73.7938 85.5657 74.1935C85.9653 74.593 86.1651 75.1017 86.1651 75.7194C86.1651 76.3369 85.9653 76.8456 85.5657 77.2451C84.7666 78.0444 84.0584 78.9253 83.4409 79.8882C82.8234 80.8509 82.3694 81.8772 82.0789 82.967C85.2752 83.9843 87.854 85.828 89.8154 88.4982C91.7768 91.1685 92.7575 94.1748 92.7575 97.517C92.7575 101.768 91.2775 105.373 88.3172 108.334C85.3569 111.295 81.752 112.775 77.5022 112.775ZM77.5022 108.416C80.5169 108.416 83.0868 107.353 85.2116 105.228C87.3365 103.103 88.3989 100.532 88.3989 97.517C88.3989 94.5017 87.3365 91.9314 85.2116 89.8061C83.0868 87.6808 80.5169 86.6182 77.5022 86.6182C74.4874 86.6182 71.9176 87.6808 69.7927 89.8061C67.6679 91.9314 66.6055 94.5017 66.6055 97.517C66.6055 100.532 67.6679 103.103 69.7927 105.228C71.9176 107.353 74.4874 108.416 77.5022 108.416Z" fill="white"/>
</g>
</svg>
